<svg height="512" viewBox="0 0 512 512" width="512" xmlns="http://www.w3.org/2000/svg"><g id="flat"><path d="m344 463v25h-184v-24l8-24 8.325-24h143.675z" fill="#0292c9"/><path d="m424 464 8-32-16-8-19.051 28.577z" fill="#a8a8a8"/><path d="m288 232v-56l-8-16v-24h-48v24l-8 16v56z" fill="#f6bb92"/><path d="m336 192v88l-16 56v80h-128v-80l-8-64v-80l40-16a64 64 0 0 0 25.6 51.2 10.668 10.668 0 0 0 12.8 0 64 64 0 0 0 25.6-51.2z" fill="#eaeae8"/><path d="m224 80v56l21.333 16h21.334l21.333-16v-56z" fill="#fdc9a6"/><path d="m184 192h-6.778a69.121 69.121 0 0 0 -53.975 25.942 69.122 69.122 0 0 0 -14.207 31.816l-5.04 30.242-32 40 8 48 64 48 8 24 48-8 8-24-24-24h-24l-32-40 56-72z" fill="#f6bb92"/><path d="m336 280 16 32v56l-40 56-24 8-16 24 40 32 16-16 8-16 64-72 8-80-8-40-4.524-22.619a58.539 58.539 0 0 0 -16.01-29.915 58.55 58.55 0 0 0 -27.2-15.4l-16.266-4.066z" fill="#f6bb92"/><path d="m312 401.412 112 62.588-16 24-112-64z" fill="#cbcbcb"/><path d="m304 24v6.7a155.883 155.883 0 0 1 -8 49.3h-72v32l-14.111-7.056a32.359 32.359 0 0 1 -17.889-28.944 32.359 32.359 0 0 1 17.889-28.944l14.111-7.056a54.626 54.626 0 0 1 38.627-16z" fill="#533222"/><path d="m216 112h24l16-8 16 8h24v-32h-80z" fill="#0bafea"/><path d="m254.474 369.265 26.276-28.49a212.45 212.45 0 0 0 55.25-142.91v-8.865l-31.986-9.341-.014 2.341c0 56.345-22.383 112.383-62.225 152.225l-17.775 17.775z" fill="#961b20"/><g fill="#a8a8a8"><path d="m176 384 32 24 80 32 24-38.588-160-89.412-24 32 32 40z"/><path d="m252.27 368.03-13.61 20.41a8 8 0 1 1 -13.32-8.88l12.91-19.36z"/><path d="m277.52 382.14-14.86 22.3a8 8 0 1 1 -13.32-8.88l14.17-21.25z"/></g><path d="m277.52 382.14-14.86 22.3a8 8 0 1 1 -13.32-8.88l14.17-21.25z" fill="#cbcbcb"/><path d="m252.27 368.03-13.61 20.41a8 8 0 1 1 -13.32-8.88l12.91-19.36z" fill="#cbcbcb"/><path d="m288 80h8v32h-8z" fill="#43dcfe"/></g></svg>