<svg height="512" viewBox="0 0 512 512" width="512" xmlns="http://www.w3.org/2000/svg"><g id="flat"><path d="m226.758 69a72 72 0 0 0 -42.758 65.791v57.209l-28.853 28.853a120 120 0 0 0 -35.147 84.853v182.294h200l40-264-32-32v-57.209a72 72 0 0 0 -42.758-65.791 72 72 0 0 0 -58.484 0z" fill="#0296e5"/><path d="m216 144a203.962 203.962 0 0 1 80 0v32a72 72 0 0 1 -14.4 43.2 32 32 0 0 1 -25.6 12.8 32 32 0 0 1 -25.6-12.8 72 72 0 0 1 -14.4-43.2z" fill="#e6af89"/><circle cx="240" cy="176" fill="#533222" r="8"/><circle cx="272" cy="176" fill="#533222" r="8"/><path d="m216 144v-40a203.962 203.962 0 0 1 80 0v40a203.962 203.962 0 0 0 -80 0z" fill="#eaeae8"/><path d="m360 224 48-40v-56h56v96l-112 88v176h-160l80-200z" fill="#0276b4"/><path d="m432 128h-24v27.566a145.877 145.877 0 0 0 5.614 40.082 145.894 145.894 0 0 0 37.119 63.085l13.267 13.267v-144z" fill="#eaeae8"/><path d="m432 128 .414-104h32l-.414 104z" fill="#683b0d"/><path d="m424 72h40v24l-24 8a24 24 0 0 1 -24 24h-8v-40z" fill="#e6af89"/><path d="m464 224v-96h-24v24a120 120 0 0 0 24 72z" fill="#cbcbcb"/></g></svg>