<svg height="512" viewBox="0 0 512 512" width="512" xmlns="http://www.w3.org/2000/svg"><g id="flat"><path d="m136 184h240v216l-96 88h-48l-96-88z" fill="#eaeae8"/><path d="m184 360a108.375 108.375 0 0 0 144 0v48a108.375 108.375 0 0 1 -144 0z" fill="#fbfdff"/><path d="m200 240-40 56 40 48 40-48z" fill="#02a437"/><path d="m216 304a7.974 7.974 0 0 1 -5.657-2.343 14.644 14.644 0 0 0 -20.686 0 8 8 0 0 1 -11.314-11.314 30.627 30.627 0 0 1 43.314 0 8 8 0 0 1 -5.657 13.657z" fill="#027226"/><path d="m312 240-40 56 40 48 40-48z" fill="#02a437"/><path d="m328 304a7.974 7.974 0 0 1 -5.657-2.343 14.644 14.644 0 0 0 -20.686 0 8 8 0 0 1 -11.314-11.314 30.627 30.627 0 0 1 43.314 0 8 8 0 0 1 -5.657 13.657z" fill="#027226"/><circle cx="256" cy="344" fill="#e82f3e" r="22"/><path d="m223.992 232a7.969 7.969 0 0 1 -4.43-1.345l-19.562-13.04-19.562 13.041a8 8 0 1 1 -8.876-13.312l24-16a8 8 0 0 1 8.876 0l24 16a8 8 0 0 1 -4.446 14.656z" fill="#0296e5"/><path d="m335.992 232a7.969 7.969 0 0 1 -4.43-1.345l-19.562-13.04-19.562 13.041a8 8 0 1 1 -8.876-13.312l24-16a8 8 0 0 1 8.876 0l24 16a8 8 0 0 1 -4.446 14.656z" fill="#0296e5"/><path d="m384 96-32-24-19.24 24.049a114.532 114.532 0 0 0 -19.219 35.33l-1.541 4.621-32-40h-48l-32 40-1.541-4.621a114.532 114.532 0 0 0 -19.219-35.33l-19.24-24.049-32 24a114.531 114.531 0 0 1 10.94 67.417l-2.94 20.583h240l-2.94-20.583a114.531 114.531 0 0 1 10.94-67.417z" fill="#ea9d2d"/><path d="m136 184c-2.557-.658-5.238 0-8 0a32 32 0 0 0 -32 32c0 .911.047 1.81.122 2.7a48 48 0 0 0 4.942 92.032 32.013 32.013 0 0 0 34.936 48.26v-126.992l7.029-7.029a57.94 57.94 0 0 0 16.971-40.971z" fill="#e82f3e"/><path d="m376 184c2.557-.658 5.238 0 8 0a32 32 0 0 1 32 32c0 .911-.047 1.81-.122 2.7a48 48 0 0 1 -4.942 92.032 32.013 32.013 0 0 1 -34.936 48.26v-126.992l-7.029-7.029a57.94 57.94 0 0 1 -16.971-40.971z" fill="#e82f3e"/><g fill="#fbb540"><circle cx="120" cy="64" r="40"/><circle cx="256" cy="64" r="40"/><circle cx="392" cy="64" r="40"/></g></g></svg>