<svg height="512" viewBox="0 0 512 512" width="512" xmlns="http://www.w3.org/2000/svg"><g id="flat"><path d="m232.006 496a8 8 0 0 1 -7.161-4.424l-32.845-65.687-32.845 65.689a8 8 0 0 1 -14.31-7.156l40-80a8 8 0 0 1 14.31 0l40 80a8 8 0 0 1 -7.149 11.578z" fill="#a3a2a2"/><path d="m192 496a8 8 0 0 1 -8-8v-80a8 8 0 0 1 16 0v80a8 8 0 0 1 -8 8z" fill="#b3b3b3"/><path d="m312 184-48 64-16 16 8 16h24 80z" fill="#ffcd01"/><path d="m248 216-24 56-16 8 16 32 16-8 56 8z" fill="#808080"/><path d="m263.537 247.075a56.1 56.1 0 0 1 -47.81 48.379l8.273 16.546 16-8 56 8z" fill="#666"/><path d="m162.111 357.167h35.777v53.666h-35.777z" fill="#808080" transform="matrix(.894 -.447 .447 .894 -152.727 121.038)"/><path d="m158.111 358.111h35.777v35.777h-35.777z" fill="#666" transform="matrix(.894 -.447 .447 .894 -149.571 118.405)"/><path d="m64 312-16 8-24 32 16 32h40l16-8z" fill="#808080"/><path d="m61.113 292.105a8 8 0 0 1 -5.7-2.386l-33.013-33.519a8 8 0 0 1 -.551-10.6l67.71-84.812a8 8 0 0 1 12.06-.509l64.193 67.791a8 8 0 0 1 -2.168 12.624l-98.89 50.543a7.981 7.981 0 0 1 -3.641.868zm-22.335-42.078 23.915 24.285 84.15-43.009-50.521-53.354z" fill="#48bdff"/><path d="m72.006 320a8 8 0 0 1 -7.161-4.424l-16-32a8 8 0 1 1 14.31-7.156l16 32a8 8 0 0 1 -7.149 11.58z" fill="#808080"/><path d="m176.006 280a8 8 0 0 1 -7.161-4.424l-24-48a8 8 0 0 1 14.31-7.156l24 48a8 8 0 0 1 -7.149 11.58z" fill="#808080"/><circle cx="48" cy="264" fill="#b3b3b3" r="32"/><path d="m74.122 298.354-10.967-21.932a8 8 0 1 0 -14.31 7.156l10.139 20.278a31.8 31.8 0 0 0 15.138-5.502z" fill="#666"/><circle cx="136" cy="192" fill="#b3b3b3" r="56"/><path d="m159.155 220.422a8 8 0 0 0 -14.31 7.156l13.3 26.608a55.679 55.679 0 0 0 14.766-6.246z" fill="#666"/><path d="m62.557 274.334h178.885v107.331h-178.885z" fill="#b3b3b3" transform="matrix(.894 -.447 .447 .894 -130.639 102.604)"/><g fill="#a3a2a2"><path d="m220.312 326.736a23.974 23.974 0 0 0 -24.86-13.025l-89.167 12.738a7.987 7.987 0 0 1 -8.285-4.342l-10.844-21.685-14.312 7.156 10.844 21.686a23.966 23.966 0 0 0 24.86 13.025l89.167-12.738a7.982 7.982 0 0 1 8.285 4.342l10.842 21.685 14.312-7.156z"/><path d="m160.006 304a8 8 0 0 1 -3.584-15.157l32-16a8 8 0 1 1 7.156 14.31l-32 16a7.973 7.973 0 0 1 -3.572.847z"/><path d="m112.006 384a8 8 0 0 1 -3.584-15.157l32-16a8 8 0 1 1 7.156 14.31l-32 16a7.973 7.973 0 0 1 -3.572.847z"/></g><path d="m392 352a7.965 7.965 0 0 1 -3.1-.629l-60.8-25.6a8 8 0 1 1 6.209-14.746l60.8 25.6a8 8 0 0 1 -3.109 15.375z" fill="#ffba01"/><path d="m264.006 192a8.008 8.008 0 0 1 -7.767-9.942l16-64a8 8 0 1 1 15.522 3.88l-16 64a8 8 0 0 1 -7.755 6.062z" fill="#ffba01"/><path d="m360 96v-24a48 48 0 0 1 48-48 48 48 0 0 1 48 48v24z" fill="#fdc47d"/><path d="m360 80h96l-8 32 40 64v128l-128-192z" fill="#fdc47d"/><path d="m360 80v32l128 192v-24l-128-192z" fill="#fcae60"/><path d="m450 80-2 8 4.286 6.857 3.714-14.857z" fill="#fcae60"/><path d="m376 80h64l8 24-40 32-40-32z" fill="#ff2b63"/><rect fill="#e6e6e6" height="64" rx="32" width="64" x="328" y="48"/><rect fill="#703f16" height="16" rx="8" width="16" x="352" y="72"/><path d="m146.05 136.921a97.453 97.453 0 0 1 -46.718 97.351 55.978 55.978 0 1 0 46.718-97.351z" fill="#a3a2a2"/><circle cx="136" cy="192" fill="#666" r="16"/><path d="m53.812 232.539a55.817 55.817 0 0 1 2.188 15.461 55.94 55.94 0 0 1 -22.241 44.645 31.993 31.993 0 1 0 20.053-60.106z" fill="#a3a2a2"/><circle cx="48.001" cy="263.999" fill="#666" r="8"/><path d="m440 80h-19.038a46.512 46.512 0 0 1 -30.316 42.116l17.354 13.884 40-32z" fill="#e5235f"/><rect fill="#e6e6e6" height="64" rx="32" width="64" x="424" y="48"/><rect fill="#703f16" height="16" rx="8" width="16" x="448" y="72"/></g></svg>