<svg id="Capa_1" enable-background="new 0 0 512 512" height="512" viewBox="0 0 512 512" width="512" xmlns="http://www.w3.org/2000/svg"><g><path d="m363.5 324.918c-81.332 0-147.5-66.168-147.5-147.5v-112.552c0-20.254 12.693-38.27 31.586-44.832 76.916-26.713 154.912-26.713 231.828 0 18.893 6.562 31.586 24.578 31.586 44.832v112.552c0 81.332-66.168 147.5-147.5 147.5z" fill="#a4e9ff"/><g><path d="m479.414 20.035c-38.458-13.357-77.186-20.035-115.914-20.035v324.918c81.332 0 147.5-66.168 147.5-147.5v-112.552c0-20.254-12.693-38.27-31.586-44.831z" fill="#91bbff"/></g><path d="m423.5 262.418h-120c-8.284 0-15-6.716-15-15 0-41.355 33.645-75 75-75s75 33.645 75 75c0 8.285-6.716 15-15 15z" fill="#ff5e82"/><g><path d="m426 132.418c-13.451 0-26.096-5.238-35.606-14.749-5.858-5.858-5.858-15.355 0-21.213 5.858-5.857 15.356-5.857 21.213 0 3.845 3.845 8.956 5.962 14.394 5.962s10.549-2.117 14.394-5.962c5.857-5.857 15.355-5.858 21.213 0s5.858 15.355 0 21.213c-9.512 9.511-22.157 14.749-35.608 14.749z" fill="#453d81"/><path d="m301 132.418c-13.451 0-26.096-5.238-35.606-14.749-5.858-5.858-5.858-15.355 0-21.213 5.857-5.857 15.355-5.857 21.213 0 3.845 3.845 8.956 5.962 14.394 5.962s10.549-2.117 14.394-5.962c5.857-5.857 15.355-5.858 21.213 0s5.858 15.355 0 21.213c-9.512 9.511-22.157 14.749-35.608 14.749z" fill="#5e54ac"/></g><path d="m148.5 512c-81.332 0-147.5-66.168-147.5-147.5v-112.552c0-20.254 12.693-38.27 31.586-44.832 76.916-26.713 154.912-26.713 231.828 0 18.893 6.562 31.586 24.578 31.586 44.832v112.552c0 81.332-66.168 147.5-147.5 147.5z" fill="#ffe67a"/><g><path d="m264.414 207.117c-38.458-13.356-77.186-20.035-115.914-20.035v324.918c81.332 0 147.5-66.168 147.5-147.5v-112.552c0-20.254-12.693-38.27-31.586-44.831z" fill="#ffc336"/></g><path d="m148.5 459.5c-41.355 0-75-33.645-75-75 0-8.284 6.716-15 15-15h120c8.284 0 15 6.716 15 15 0 41.355-33.645 75-75 75z" fill="#ff5e82"/><g><path d="m236 309.855c-3.839 0-7.678-1.464-10.606-4.394-3.845-3.845-8.956-5.962-14.394-5.962s-10.549 2.117-14.394 5.962c-5.857 5.857-15.355 5.858-21.213 0s-5.858-15.355 0-21.213c9.511-9.511 22.155-14.749 35.606-14.749s26.096 5.238 35.606 14.749c5.858 5.858 5.858 15.355 0 21.213-2.927 2.93-6.767 4.394-10.605 4.394z" fill="#453d81"/><path d="m111 309.855c-3.839 0-7.678-1.464-10.606-4.394-3.845-3.844-8.956-5.961-14.394-5.961s-10.549 2.117-14.394 5.962c-5.857 5.857-15.355 5.858-21.213 0s-5.858-15.355 0-21.213c9.511-9.511 22.156-14.749 35.607-14.749s26.096 5.238 35.606 14.749c5.858 5.858 5.858 15.355 0 21.213-2.928 2.929-6.768 4.393-10.606 4.393z" fill="#5e54ac"/></g><g><path d="m208.5 369.5h-60v90c41.355 0 75-33.645 75-75 0-8.284-6.716-15-15-15z" fill="#b7457d"/></g><g><path d="m423.5 262.418h-60v-90c41.355 0 75 33.645 75 75 0 8.285-6.716 15-15 15z" fill="#b7457d"/></g></g></svg>