<svg id="Capa_1" enable-background="new 0 0 512 512" height="512" viewBox="0 0 512 512" width="512" xmlns="http://www.w3.org/2000/svg"><g><g><path d="m409.509 512c-26.51 0-49.953-16.897-58.335-42.046l-.176-.527c-3.476-10.427-13.188-17.427-24.17-17.427-10.5 0-19.374 7.518-21.1 17.874-4.068 24.409-24.982 42.126-49.728 42.126s-45.66-17.717-49.728-42.126c-1.726-10.356-10.6-17.874-21.1-17.874-10.982 0-20.694 7-24.167 17.419l-.182.543c-8.379 25.141-31.822 42.038-58.332 42.038-33.906 0-61.491-27.585-61.491-61.491 0-19.747 9.81-38.076 26.24-49.029 21.139-14.093 33.76-37.675 33.76-63.083v-32.414c-7.504 3.845-16.004 6.017-25 6.017-30.327 0-55-24.673-55-55v-125.925c0-13.911 7.869-26.123 20.537-31.872 12.667-5.749 27.04-3.629 37.51 5.531l24.621 21.543c13.507-71.791 76.677-126.277 152.332-126.277s138.825 54.486 152.332 126.277l24.621-21.543c10.469-9.161 24.843-11.28 37.51-5.531 12.668 5.749 20.537 17.961 20.537 31.872v125.925c0 30.327-24.673 55-55 55-8.996 0-17.496-2.172-25-6.017v32.414c0 25.407 12.621 48.989 33.76 63.082 16.43 10.954 26.24 29.283 26.24 49.03 0 33.906-27.585 61.491-61.491 61.491z" fill="#f0f9ff"/><g><path d="m470.463 99.203c-12.667-5.749-27.042-3.63-37.51 5.531l-24.621 21.543c-13.507-71.791-76.677-126.277-152.332-126.277v512c24.746 0 45.66-17.717 49.728-42.126 1.726-10.356 10.6-17.874 21.1-17.874 10.982 0 20.694 7 24.17 17.427l.176.527c8.382 25.149 31.825 42.046 58.335 42.046 33.906 0 61.491-27.585 61.491-61.491 0-19.747-9.81-38.076-26.24-49.029-21.139-14.093-33.76-37.675-33.76-63.083v-32.414c7.504 3.845 16.004 6.017 25 6.017 30.327 0 55-24.673 55-55v-125.925c0-13.911-7.869-26.123-20.537-31.872z" fill="#d2e6fb"/></g><path d="m179.597 241.151c-3.077 0-6.135-.395-9.126-1.195-12.556-3.364-22.545-13.535-27.406-27.904-4.212-12.45-4.4-27.26-.531-41.699 3.869-14.438 11.437-27.169 21.31-35.846 11.394-10.013 25.129-13.823 37.686-10.463 12.556 3.364 22.545 13.535 27.406 27.904 4.212 12.45 4.4 27.26.531 41.699-3.869 14.438-11.437 27.169-21.31 35.846-8.68 7.628-18.719 11.658-28.56 11.658z" fill="#d2e6fb"/><path d="m332.403 241.151c-9.842.001-19.879-4.029-28.56-11.658-9.873-8.677-17.441-21.407-21.31-35.847-3.869-14.438-3.681-29.248.531-41.698 4.861-14.369 14.85-24.54 27.406-27.904 12.557-3.362 26.293.449 37.686 10.463 9.873 8.677 17.441 21.407 21.31 35.847v-.001c3.869 14.439 3.681 29.249-.531 41.699-4.861 14.369-14.85 24.54-27.406 27.904-2.99.801-6.05 1.195-9.126 1.195z" fill="#afc5e6"/><path d="m296 352h-80c-8.284 0-15-6.716-15-15 0-21.267 4.863-41.488 13.692-56.939 10.19-17.833 25.246-28.061 41.308-28.061s31.118 10.228 41.308 28.061c8.829 15.451 13.692 35.672 13.692 56.939 0 8.284-6.716 15-15 15z" fill="#ff824d"/></g><g><g><path d="m297.308 280.061c-10.19-17.833-25.246-28.061-41.308-28.061v100h40c8.284 0 15-6.716 15-15 0-21.267-4.863-41.488-13.692-56.939z" fill="#ff465a"/></g></g></g></svg>