<svg id="Capa_1" enable-background="new 0 0 512 512" height="512" viewBox="0 0 512 512" width="512" xmlns="http://www.w3.org/2000/svg"><g><g><g><g id="Cowboy_Hat_1_"><g><path d="m255 270.035c-52.002 0-94.248-2.622-132.979-8.262-7.354-1.069-12.832-7.383-12.832-14.839 0-.923.088-2.168.264-3.076l36.914-196.787c4.863-27.202 28.74-47.036 56.719-47.036 21.416 0 41.25 11.528 51.768 30.103 10.811-18.574 30.41-30.103 51.445-30.103 28.33 0 52.471 19.834 57.363 47.153l36.885 196.67c.176.908.264 1.846.264 2.769v.308c0 7.456-5.479 13.77-12.832 14.839-38.731 5.639-80.977 8.261-132.979 8.261z" fill="#704c55"/></g></g></g><path d="m413.21 299.425c-27.47 18.41-71.89 54.61-109.22 93.99-11.66 12.3-21.9 24.18-30.57 35.4 17.56 26.19 26.43 49 26.43 68.15 0 8.29-6.71 15-15 15-8.28 0-15-6.71-15-15 0-.49-.01-.9-.03-1.24-.54-15.4-10.869-32.843-14.97-40.02-9.78 16.4-15 30.5-15 41.26 0 8.29-6.71 15-15 15-8.28 0-15-6.71-15-15 0-19.15 8.88-41.96 26.44-68.15-8.67-11.22-18.91-23.1-30.57-35.4-37.33-39.38-81.75-75.58-109.22-93.99-6.88-4.61-8.72-13.93-4.11-20.81 4.62-6.88 13.94-8.72 20.82-4.11 26.73 17.92 72.7 54.41 114.28 98.27 10.19 10.75 19.31 21.1 27.36 31.05 4.083-5.079 13.621-16.555 27.37-31.05 41.58-43.86 87.55-80.35 114.28-98.27 6.88-4.61 16.2-2.77 20.81 4.11 4.62 6.88 2.78 16.2-4.1 20.81z" fill="#fb3"/><path d="m396.5 274.505c-26.73 17.92-72.7 54.41-114.28 98.27-13.746 14.491-23.282 25.965-27.367 31.045v51.891c4.104 7.181 14.426 24.618 14.966 40.014.02.34.03.75.03 1.24 0 8.29 6.72 15 15 15 8.29 0 15-6.71 15-15 0-19.15-8.87-41.96-26.43-68.15 8.67-11.22 18.91-23.1 30.57-35.4 37.33-39.38 81.75-75.58 109.22-93.99 6.88-4.61 8.72-13.93 4.1-20.81-4.609-6.88-13.929-8.72-20.809-4.11z" fill="#e68a2e"/></g><path d="m255 270.035c52.002 0 94.248-2.622 132.979-8.262 7.354-1.069 12.832-7.383 12.832-14.839v-.308c0-.923-.088-1.86-.264-2.769l-36.885-196.67c-4.893-27.319-29.033-47.153-57.363-47.153-21.035 0-40.635 11.528-51.445 30.103v239.897c.049.001.097.001.146.001z" fill="#5a344b"/><g><path d="m282.451 211.383-27.451-16.773-27.451 16.772c-5.156 3.164-11.777 2.886-16.641-.674-4.893-3.56-7.178-9.727-5.771-15.615l7.471-31.274-24.434-20.933c-4.6-3.94-6.387-10.269-4.512-16.025 1.875-5.771 7.031-9.844 13.066-10.327l32.051-2.563 12.363-29.692c4.688-11.191 23.027-11.191 27.715 0l12.363 29.692 32.051 2.563c6.035.483 11.191 4.556 13.066 10.327 1.875 5.757.088 12.085-4.512 16.025l-24.434 20.933 7.471 31.274c1.406 5.889-.879 12.056-5.771 15.615-4.869 3.557-11.449 3.84-16.64.675z" fill="#fb3"/></g><path d="m313.271 116.534-32.051-2.563-12.363-29.692c-2.364-5.643-8.198-8.437-14.004-8.389v118.81l.147-.09 27.451 16.772c5.191 3.165 11.771 2.883 16.641-.674 4.893-3.56 7.178-9.727 5.771-15.615l-7.471-31.274 24.434-20.933c4.6-3.94 6.387-10.269 4.512-16.025-1.875-5.771-7.031-9.844-13.067-10.327z" fill="#e68a2e"/><g><g><path d="m255 330.035c-96.386 0-145.233-8.39-219.277-24.302-25.691-5.593-40.428-30.809-34.365-55.239 5.889-23.467 28.916-37.954 52.471-32.93 23.067 4.591 41.085 9.731 72.47 14.209 35.112 5.016 67.46 8.262 128.701 8.262 60.475 0 94.981-3.303 128.701-8.262 32.111-4.581 52.867-9.925 74.639-14.238 23.496-4.922 46.406 9.478 52.295 32.959 6.18 24.903-9.226 49.766-34.16 55.195-.059.015-.117.029-.205.044-69.139 14.858-119.257 24.302-221.27 24.302zm218.282-38.994h.293z" fill="#9b786f"/></g></g><path d="m458.34 217.535c-21.772 4.313-42.528 9.657-74.639 14.238-33.72 4.959-68.226 8.262-128.701 8.262-.05 0-.097 0-.146 0v90h.146c102.013 0 152.131-9.444 221.27-24.302.088-.015.146-.029.205-.044 24.934-5.43 40.34-30.292 34.16-55.195-5.888-23.481-28.799-37.881-52.295-32.959z" fill="#704c55"/></g></svg>